<svg width="132" height="110" viewBox="0 0 132 110" fill="none" xmlns="http://www.w3.org/2000/svg">
  <defs>
    <filter id="shadow" x="0" y="8" width="132" height="102" filterUnits="userSpaceOnUse" color-interpolation-filters="sRGB">
      <feDropShadow dx="0" dy="10" stdDeviation="8" flood-color="#1F3642" flood-opacity="0.14"/>
    </filter>
  </defs>
  <g filter="url(#shadow)">
    <g transform="rotate(-8 58 44)">
      <path d="M90.382 14.514C99.545 13.397 107.102 20.929 106.056 30.1L101.867 66.816C101.081 73.7 95.601 79.054 88.7 79.683L39.272 84.184C29.271 85.095 21.198 76.36 22.265 66.375L26.158 29.941C26.884 23.143 32.256 17.808 39.058 17.129L90.382 14.514Z" fill="#FFF9FB"/>
      <path d="M89.527 18.144C96.349 17.313 101.97 22.921 101.191 29.749L97.684 60.493C97.099 65.618 93.02 69.603 87.882 70.07L41.108 74.329C33.662 75.007 27.649 68.503 28.443 61.068L31.732 30.275C32.272 25.218 36.272 21.251 41.334 20.75L89.527 18.144Z" stroke="#ECA0B4" stroke-width="2.4" stroke-dasharray="4 4"/>
      <path d="M49.579 31.216C54.462 27.351 61.698 29.622 63.507 35.553C65.278 30.743 71.125 28.298 75.85 30.217C82.34 32.852 83.928 40.583 79.401 45.456C73.993 51.28 65.92 55.6 60.992 57.95C59.301 58.756 57.27 58.624 55.708 57.592C51.313 54.687 44.28 49.118 41.728 42.18C39.575 36.329 42.917 32.64 49.579 31.216Z" fill="#6E8AE6"/>
      <circle cx="53.8" cy="42.7" r="3.1" fill="#1F3142"/>
      <circle cx="70.5" cy="42.4" r="3.1" fill="#1F3142"/>
      <path d="M56.547 50.75C60.557 53.826 65.902 53.512 69.503 50.096" stroke="#1F3142" stroke-width="2.6" stroke-linecap="round"/>
      <path d="M87.803 33.179C91.165 28.746 97.291 27.584 101.923 30.521C106.555 33.458 107.94 39.537 105.159 44.265L99.998 53.036C99.131 54.51 97.236 55.001 95.761 54.134L86.991 48.973C82.262 46.191 81.101 40.065 84.038 35.434L87.803 33.179Z" fill="#7DD7C9"/>
      <path d="M95.382 28.858L93.416 22.576C92.833 20.712 93.872 18.728 95.737 18.145C97.601 17.561 99.585 18.601 100.169 20.465L102.134 26.746L95.382 28.858Z" fill="#7DD7C9"/>
      <path d="M85.706 48.215L92.547 35.169C93.257 33.814 94.931 33.292 96.286 34.003L99.365 35.617C100.72 36.327 101.242 38.001 100.531 39.356L93.691 52.402L85.706 48.215Z" fill="#B8EFEA"/>
      <path d="M45.7 64.2H79.6" stroke="#ECA0B4" stroke-width="2.4" stroke-linecap="round"/>
      <path d="M45.7 69.9H71.2" stroke="#ECA0B4" stroke-width="2.4" stroke-linecap="round"/>
    </g>
    <g transform="translate(16 70)">
      <rect x="0.8" y="0.8" width="66.4" height="23.4" rx="12" fill="#FFFFFF"/>
      <rect x="0.8" y="0.8" width="66.4" height="23.4" rx="12" stroke="#ECA0B4" stroke-width="1.6"/>
      <text x="34" y="17" text-anchor="middle" font-family="'Microsoft YaHei', 'PingFang SC', sans-serif" font-size="11" font-weight="700" fill="#9D4357" letter-spacing="1.6">布布推荐</text>
    </g>
  </g>
</svg>
